<?xml version="1.0" standalone="no"?>
<!DOCTYPE svg PUBLIC "-//W3C//DTD SVG 20010904//EN"
 "http://www.w3.org/TR/2001/REC-SVG-20010904/DTD/svg10.dtd">
<svg version="1.0" xmlns="http://www.w3.org/2000/svg"
 width="4716.000000pt" height="1857.000000pt" viewBox="0 0 4716.000000 1857.000000"
 preserveAspectRatio="xMidYMid meet">

<g transform="translate(0.000000,1857.000000) scale(0.100000,-0.100000)"
fill="#000000" stroke="none">
<path d="M13395 11489 c-271 -40 -519 -171 -721 -381 -168 -175 -278 -383
-336 -636 l-22 -97 -3 -1682 -4 -1683 501 0 500 0 0 515 0 515 235 0 235 0 0
-515 0 -515 495 0 495 0 0 1663 c0 1480 -2 1674 -16 1758 -70 409 -333 764
-699 944 -60 29 -141 63 -180 75 -146 44 -336 60 -480 39z m262 -1000 c46 -17
83 -60 101 -119 15 -49 17 -119 17 -690 l0 -635 -230 0 -230 0 -3 600 c-3 621
1 692 38 765 23 44 39 58 87 76 46 16 181 18 220 3z"/>
<path d="M19995 11479 c-319 -43 -597 -163 -813 -352 -222 -193 -379 -480
-440 -800 -15 -84 -17 -185 -17 -1137 l0 -1045 23 -105 c131 -594 586 -997
1218 -1081 133 -17 454 -6 574 20 596 132 999 534 1106 1106 18 94 19 165 19
1110 0 1128 1 1103 -71 1325 -164 500 -548 830 -1093 941 -112 23 -396 33
-506 18z m387 -1019 c131 -41 238 -137 270 -243 10 -33 13 -261 13 -1022 l0
-980 -26 -56 c-59 -126 -240 -212 -444 -211 -200 0 -372 80 -441 204 l-29 53
0 995 0 995 23 52 c47 103 168 192 311 228 78 20 236 13 323 -15z"/>
<path d="M1310 9215 l0 -2205 500 0 500 0 2 1280 3 1281 489 -1001 490 -1000
429 2 429 3 484 990 c267 544 489 994 494 999 7 7 10 -444 10 -1272 l0 -1282
500 0 500 0 0 2205 0 2205 -610 -2 -611 -3 -596 -1217 c-328 -670 -599 -1218
-602 -1218 -3 0 -274 548 -601 1218 l-596 1217 -607 3 -607 2 0 -2205z"/>
<path d="M6400 9215 l0 -2205 920 0 920 0 0 500 0 500 -422 2 -423 3 0 350 0
350 378 3 377 2 0 500 0 500 -380 0 -380 0 0 350 0 350 425 0 425 0 0 500 0
500 -920 0 -920 0 0 -2205z"/>
<path d="M8460 10920 l0 -500 660 0 660 0 0 -1705 0 -1705 500 0 500 0 0 1705
0 1705 655 0 655 0 0 500 0 500 -1815 0 -1815 0 0 -500z"/>
<path d="M15040 9215 l0 -2205 500 0 500 0 2 701 3 701 130 -421 130 -421 444
2 444 3 128 413 c70 228 130 416 133 420 3 3 6 -310 6 -696 l0 -702 500 0 500
0 0 2205 0 2205 -563 0 -563 0 -288 -932 c-159 -513 -291 -936 -295 -940 -4
-4 -137 414 -297 930 l-290 937 -562 3 -562 2 0 -2205z"/>
<path d="M21930 9215 l0 -2205 500 0 500 0 0 715 0 715 555 0 555 0 0 500 0
500 -555 0 -555 0 0 490 0 490 555 0 555 0 0 500 0 500 -1055 0 -1055 0 0
-2205z"/>
<path d="M40356 10459 c-101 -152 -217 -423 -270 -630 -57 -221 -71 -335 -70
-579 0 -286 30 -480 114 -730 55 -164 176 -417 239 -498 l17 -24 29 43 c100
152 217 425 270 633 55 217 69 333 69 576 0 293 -33 502 -121 753 -56 163
-166 390 -228 473 l-21 27 -28 -44z"/>
<path d="M33679 8590 c-189 -30 -364 -95 -577 -217 -568 -322 -1043 -812
-1417 -1463 -91 -159 -289 -552 -366 -728 -31 -70 -62 -128 -73 -134 -18 -10
-19 -7 -12 76 22 264 253 1444 407 2073 27 112 29 125 16 156 -25 59 -127 87
-182 51 -43 -28 -62 -74 -138 -340 -136 -474 -237 -960 -396 -1904 -74 -439
-101 -680 -101 -907 0 -98 7 -120 60 -177 76 -82 210 -116 276 -69 38 28 43
40 153 376 265 812 585 1437 1009 1969 125 157 417 453 552 560 354 281 700
427 985 416 81 -3 111 -9 156 -30 181 -84 269 -321 269 -733 0 -466 -186
-1200 -465 -1830 -89 -201 -304 -618 -334 -648 -10 -10 -92 -23 -271 -42 -691
-75 -1371 -250 -1845 -474 -395 -187 -765 -462 -1050 -779 -241 -269 -347
-467 -377 -708 -37 -292 109 -497 418 -586 113 -33 368 -33 530 0 468 94 1055
433 1654 956 239 209 454 444 716 781 103 132 299 403 368 507 37 55 39 57 94
64 147 18 393 -11 594 -69 47 -14 121 -33 164 -42 43 -9 80 -17 82 -19 1 -2
-11 -79 -28 -172 -40 -220 -80 -519 -80 -593 0 -150 37 -295 92 -357 39 -45
154 -100 248 -120 99 -21 275 -14 379 16 178 50 376 172 557 342 l51 48 12
-43 c37 -123 127 -230 224 -264 78 -27 210 -23 312 10 261 86 555 355 845 777
136 198 170 222 170 122 0 -232 -99 -741 -211 -1087 l-50 -154 -37 -9 c-20 -5
-124 -31 -231 -57 -817 -198 -1403 -553 -1736 -1050 -112 -167 -160 -288 -185
-464 -25 -180 61 -345 222 -427 204 -104 546 -59 894 116 274 138 501 333 728
624 185 237 374 564 521 901 27 61 54 115 62 121 7 6 46 16 86 22 199 31 294
25 447 -28 46 -17 95 -30 108 -30 30 0 71 22 101 54 47 51 4 141 -97 202 -82
50 -164 66 -363 73 l-176 6 28 136 c15 74 50 227 78 340 28 112 60 258 72 324
26 151 36 414 20 551 -19 157 -70 415 -93 461 -22 45 -70 84 -133 106 -22 8
-70 30 -107 50 -97 51 -198 71 -322 64 -127 -8 -197 -27 -311 -82 -120 -59
-239 -150 -424 -328 -145 -139 -158 -154 -222 -267 -140 -245 -279 -430 -450
-596 -176 -169 -320 -268 -456 -310 -68 -22 -97 -25 -172 -23 -96 4 -123 16
-165 73 -32 43 -25 170 28 526 133 898 130 864 107 918 -24 58 -110 83 -164
47 -37 -24 -61 -81 -98 -227 l-31 -127 -57 28 c-31 16 -85 38 -121 49 -104 32
-340 81 -438 91 -87 9 -152 31 -152 51 0 6 31 72 69 148 134 267 315 697 406
963 103 299 213 760 250 1049 26 194 17 598 -15 723 -76 293 -279 513 -535
582 -71 19 -277 28 -356 15z m3490 -3566 c29 -15 55 -33 58 -41 15 -39 -78
-218 -243 -469 -303 -462 -690 -797 -834 -722 -134 70 -34 461 199 778 80 109
210 234 341 329 175 127 228 149 351 150 62 1 84 -4 128 -25z m-3869 -251 c0
-13 -51 -101 -108 -183 -311 -453 -746 -903 -1207 -1250 -545 -410 -973 -598
-1370 -603 -197 -2 -296 38 -345 137 -60 124 10 382 162 604 66 95 278 315
410 424 226 188 494 354 764 474 271 121 670 242 1054 318 151 30 461 79 555
88 34 3 85 -2 85 -9z m3660 -1910 c0 -60 -199 -433 -329 -618 -305 -435 -637
-711 -976 -811 -75 -22 -111 -27 -215 -28 -138 -1 -171 9 -214 67 -39 52 -17
214 49 363 57 129 209 321 362 456 202 179 543 369 863 480 90 31 413 117 443
118 12 0 17 -8 17 -27z"/>
<path d="M44914 7321 c-190 -30 -382 -149 -615 -381 -231 -230 -349 -402 -547
-800 -198 -396 -320 -704 -412 -1037 -43 -154 -104 -445 -116 -548 -7 -65 -13
-78 -234 -530 -171 -350 -240 -477 -345 -635 -110 -165 -195 -270 -334 -412
-116 -120 -168 -155 -239 -165 -33 -4 -42 -1 -70 28 -84 86 -98 329 -41 703
25 170 104 515 250 1096 69 277 119 495 119 523 0 72 -21 104 -93 138 -109 51
-177 37 -242 -51 -20 -27 -44 -50 -54 -50 -9 0 -71 13 -137 30 -140 35 -212
37 -318 10 -172 -44 -461 -209 -637 -363 -326 -286 -567 -772 -519 -1045 46
-265 271 -349 555 -208 175 88 273 174 724 644 134 138 246 252 250 252 4 0
-12 -82 -36 -182 -73 -309 -151 -668 -168 -768 -25 -156 -37 -396 -24 -506 28
-253 114 -416 257 -486 60 -30 76 -33 152 -33 111 0 190 27 306 105 118 78
204 157 322 298 165 197 338 456 478 716 l59 109 8 -39 c30 -142 53 -229 82
-301 122 -305 347 -505 640 -569 109 -24 348 -24 467 -1 380 75 737 317 1087
735 166 199 312 424 437 674 57 114 65 137 61 171 -10 74 -91 126 -173 111
-59 -11 -98 -55 -164 -185 -165 -325 -430 -689 -641 -880 -283 -257 -524 -372
-804 -385 -134 -7 -221 7 -315 48 -283 127 -434 526 -400 1058 6 89 14 169 19
178 5 8 56 32 114 52 307 108 550 281 902 641 303 310 517 609 703 985 127
256 184 430 200 616 35 385 -113 621 -402 642 -33 3 -84 1 -112 -3z m153 -286
c77 -51 91 -266 32 -497 -76 -300 -283 -684 -545 -1013 -49 -60 -169 -191
-269 -291 -273 -273 -462 -428 -625 -512 -81 -42 -85 -43 -88 -23 -14 93 128
579 280 956 74 182 197 446 268 575 203 369 498 699 706 791 90 40 192 46 241
14z m-3299 -2054 l32 -23 -22 -39 c-73 -130 -361 -473 -582 -694 -249 -248
-431 -387 -520 -397 -27 -3 -31 1 -43 42 -20 63 -10 140 31 247 80 210 175
355 340 519 167 166 397 317 549 359 76 22 174 15 215 -14z"/>
<path d="M40203 7205 c-17 -7 -38 -24 -46 -37 -16 -25 -52 -164 -89 -344 l-22
-111 -381 -6 c-437 -7 -988 -32 -1089 -48 -84 -14 -129 -48 -129 -97 0 -45 20
-79 60 -97 31 -15 90 -16 616 -9 320 4 644 3 719 -1 l136 -7 -5 -56 c-3 -32
-22 -147 -43 -257 -70 -360 -130 -684 -195 -1055 l-64 -365 -45 -83 c-228
-410 -535 -743 -818 -886 -106 -54 -176 -70 -285 -64 -96 5 -126 21 -158 84
-32 65 -30 93 75 794 83 552 85 573 71 621 -15 48 -59 79 -114 79 -53 0 -99
-46 -121 -121 -55 -182 -144 -619 -192 -944 -43 -286 -32 -477 33 -597 89
-164 424 -228 703 -133 211 72 419 224 668 488 39 42 72 70 72 62 0 -8 -13
-104 -30 -213 -83 -554 -120 -870 -120 -1019 0 -135 2 -153 24 -199 32 -69 76
-99 143 -99 40 0 57 5 76 23 34 32 36 47 47 277 9 211 25 349 91 790 101 672
419 2519 469 2720 17 70 36 125 46 132 21 16 95 21 374 28 379 10 505 20 559
47 112 56 58 170 -93 197 -33 6 -145 11 -250 11 -186 0 -545 16 -554 24 -2 3
3 85 12 183 20 225 13 263 -50 289 -41 17 -60 17 -101 -1z"/>
<path d="M34900 5917 c-19 -7 -41 -25 -51 -42 -19 -33 -61 -287 -52 -313 3 -9
17 -29 31 -44 21 -23 34 -28 74 -28 87 0 150 81 164 211 8 83 -9 169 -40 198
-29 27 -80 35 -126 18z"/>
<path d="M38485 5916 c-55 -24 -65 -45 -85 -181 -26 -166 -26 -174 9 -213 59
-64 160 -34 210 62 29 57 41 193 22 264 -19 70 -86 99 -156 68z"/>
</g>
</svg>
