<?xml version="1.0" standalone="no"?>
<!DOCTYPE svg PUBLIC "-//W3C//DTD SVG 20010904//EN"
 "http://www.w3.org/TR/2001/REC-SVG-20010904/DTD/svg10.dtd">
<svg version="1.0" xmlns="http://www.w3.org/2000/svg"
 width="1572.000000pt" height="619.000000pt" viewBox="0 0 1572.000000 619.000000"
 preserveAspectRatio="xMidYMid meet">

<g transform="translate(0.000000,619.000000) scale(0.100000,-0.100000)"
fill="#000000" stroke="none">
<path d="M0 3095 l0 -3095 7860 0 7860 0 0 3095 0 3095 -7860 0 -7860 0 0
-3095z m13075 701 c44 -14 109 -42 144 -63 74 -44 175 -134 213 -190 l27 -38
-40 -80 c-76 -154 -99 -342 -64 -510 15 -71 91 -245 107 -245 14 0 86 158 105
230 11 44 17 104 17 185 0 138 -21 230 -79 345 -19 38 -35 73 -35 78 0 14 86
110 142 158 70 60 214 129 310 148 236 48 479 -25 649 -196 221 -221 281 -578
144 -863 -88 -184 -234 -313 -430 -381 -73 -26 -93 -28 -220 -28 -127 0 -147
2 -220 27 -141 49 -272 143 -358 257 l-27 35 -16 -25 c-9 -14 -51 -59 -93
-100 -134 -132 -301 -200 -490 -200 -208 0 -375 73 -522 228 -391 409 -194
1104 353 1243 106 27 274 21 383 -15z m-2595 3 c237 -38 392 -226 392 -474 0
-186 -91 -342 -244 -421 -83 -42 -158 -54 -350 -54 l-178 0 0 -255 0 -255
-165 0 -165 0 0 729 c0 574 3 730 13 734 24 10 633 7 697 -4z m800 -274 l0
-285 225 0 225 0 2 283 3 282 165 0 165 0 3 -732 2 -733 -170 0 -170 0 0 285
0 285 -225 0 c-217 0 -225 -1 -225 -20 0 -14 9 -21 38 -26 81 -15 156 -74 188
-149 73 -173 5 -531 -175 -919 -23 -49 -39 -92 -36 -95 3 -3 47 -13 98 -24 51
-10 105 -24 120 -32 31 -15 29 -18 47 52 14 54 41 72 70 43 13 -13 18 -28 15
-47 -19 -103 -55 -370 -55 -401 0 -49 14 -62 70 -62 91 0 234 117 315 256 46
79 162 200 230 240 71 41 163 45 243 9 67 -30 67 -30 88 -128 18 -86 18 -193
-1 -277 -7 -36 -23 -104 -33 -151 l-19 -86 80 -10 c85 -12 130 -35 135 -71 5
-34 -26 -43 -90 -25 -38 11 -73 13 -109 9 l-54 -7 -39 -85 c-97 -210 -252
-397 -386 -463 -180 -88 -325 -79 -371 23 -18 42 -19 50 -6 105 49 213 305
402 652 481 l70 15 19 55 c27 81 66 278 66 335 l-1 50 -22 -26 c-12 -14 -42
-54 -66 -88 -54 -75 -147 -163 -204 -193 -28 -15 -61 -22 -100 -22 -54 -1 -61
2 -88 32 -16 18 -29 39 -29 47 0 21 -5 19 -63 -24 -79 -59 -135 -83 -202 -88
-72 -5 -131 13 -158 49 -28 38 -32 133 -10 260 l19 107 -83 20 c-45 12 -111
21 -146 21 l-64 0 -98 -132 c-312 -423 -762 -705 -1009 -634 -199 58 -191 249
18 461 96 98 217 184 331 235 149 67 380 126 591 151 l101 12 46 86 c94 177
166 382 202 576 21 111 17 294 -7 340 -23 42 -58 72 -95 80 l-33 7 0 -221 0
-221 -165 0 -165 0 0 141 0 140 -35 -27 c-49 -37 -163 -174 -228 -275 -82
-126 -172 -316 -232 -490 -29 -84 -59 -158 -67 -163 -20 -12 -64 0 -90 26 -20
20 -20 28 -15 127 12 203 132 809 188 953 12 29 36 42 62 32 24 -9 27 -28 11
-86 -40 -149 -141 -684 -131 -694 2 -3 36 59 75 138 39 79 97 184 131 234 69
104 187 235 273 300 l58 45 0 535 0 534 165 0 165 0 0 -285z m-1898 233 c49
-23 97 -56 128 -88 59 -58 114 -166 131 -255 15 -81 6 -217 -21 -286 -31 -84
-94 -175 -144 -211 l-45 -31 25 -41 c41 -66 119 -231 178 -373 l54 -133 -179
0 c-162 0 -180 2 -186 18 -19 55 -106 242 -135 289 -43 71 -103 140 -139 158
-23 13 -109 15 -534 15 l-505 0 0 160 0 159 608 3 c685 3 645 -1 683 81 36 81
13 194 -47 234 -26 17 -67 18 -636 21 l-608 3 0 160 0 160 648 -3 647 -3 77
-37z m5694 -1337 c44 -27 66 -80 66 -160 1 -81 -19 -145 -80 -265 -78 -151
-206 -307 -342 -415 -54 -43 -182 -111 -208 -111 -11 0 -13 -24 -11 -128 4
-120 6 -133 34 -187 20 -40 45 -69 73 -89 39 -27 51 -30 116 -30 165 2 312
120 467 376 65 107 76 117 114 100 24 -11 27 -17 21 -45 -8 -38 -73 -151 -134
-231 -145 -189 -304 -286 -471 -286 -96 0 -156 23 -217 85 -50 49 -94 137 -94
185 0 32 -14 23 -40 -22 -83 -150 -215 -304 -284 -333 -55 -23 -109 -19 -144
10 -77 65 -85 196 -28 451 20 88 36 165 36 170 0 5 -55 -48 -123 -117 -128
-132 -177 -170 -245 -189 -87 -23 -150 40 -139 138 3 24 23 82 46 128 98 196
309 328 459 285 28 -8 36 -6 58 16 19 19 31 23 52 18 37 -9 52 -23 52 -49 0
-12 -20 -100 -44 -196 -24 -96 -53 -221 -65 -277 -22 -109 -28 -261 -11 -294
45 -83 207 105 350 404 49 105 70 161 79 215 25 158 149 472 241 609 67 99
195 216 265 241 48 17 117 14 151 -7z m-1636 -21 c12 -7 14 -26 12 -85 l-3
-75 124 0 c68 0 138 -5 155 -11 33 -11 49 -36 33 -52 -16 -16 -97 -26 -213
-26 -96 -1 -108 -3 -118 -21 -23 -43 -184 -1019 -198 -1200 l-7 -95 -30 -3
c-19 -3 -33 2 -42 14 -19 26 -15 155 11 336 l22 157 -71 -68 c-122 -115 -246
-156 -350 -116 -49 18 -64 39 -76 100 -15 78 53 452 88 486 25 24 63 9 63 -24
0 -14 -13 -115 -30 -225 -16 -111 -30 -208 -30 -216 0 -28 30 -46 79 -46 39 0
59 7 107 38 89 58 186 169 239 272 16 32 97 435 112 558 l6 52 -246 0 c-233 0
-247 1 -257 19 -15 29 9 48 72 54 29 4 144 9 255 13 l202 6 16 74 c18 83 39
107 75 84z m-1766 -436 c19 -19 21 -70 3 -104 -9 -18 -21 -25 -42 -25 l-30 0
2 60 c2 43 7 63 20 72 22 17 28 16 47 -3z m1194 4 c18 -18 15 -98 -5 -120 -35
-39 -77 -13 -67 43 13 80 12 79 55 88 3 0 10 -4 17 -11z"/>
<path d="M12760 3485 c-110 -31 -202 -110 -256 -220 -27 -56 -29 -67 -29 -180
0 -116 1 -122 34 -187 41 -82 119 -159 198 -196 51 -24 70 -27 153 -27 83 1
102 4 152 28 230 112 308 398 168 615 -90 141 -265 210 -420 167z"/>
<path d="M13965 3487 c-192 -64 -307 -234 -292 -432 28 -378 483 -523 703
-224 195 265 23 652 -295 666 -45 2 -92 -3 -116 -10z"/>
<path d="M10100 3325 l0 -145 165 0 c187 0 222 8 255 62 25 41 26 116 4 164
-28 58 -51 64 -249 64 l-175 0 0 -145z"/>
<path d="M12241 1639 c-113 -76 -202 -209 -205 -309 -1 -40 3 -55 17 -64 54
-35 241 155 336 342 28 54 17 72 -44 72 -33 0 -56 -9 -104 -41z"/>
<path d="M10990 1583 c-87 -13 -239 -49 -320 -75 -292 -93 -541 -296 -581
-473 -15 -68 1 -98 61 -116 212 -64 701 274 935 644 l17 27 -43 -1 c-24 -1
-55 -4 -69 -6z"/>
<path d="M12216 939 c-89 -26 -198 -76 -273 -127 -114 -77 -203 -201 -203
-280 0 -55 17 -66 94 -60 150 12 317 158 444 388 16 30 33 65 37 78 8 28 -5
28 -99 1z"/>
<path d="M14925 2332 c-87 -53 -179 -175 -261 -346 -74 -154 -161 -426 -136
-426 23 0 131 87 223 179 176 175 278 354 287 503 3 54 1 83 -8 93 -17 20 -69
19 -105 -3z"/>
<path d="M13800 1643 c-104 -54 -216 -179 -249 -280 -17 -51 -9 -93 17 -86 51
13 256 217 339 336 22 32 24 40 12 48 -25 16 -64 10 -119 -18z"/>
</g>
</svg>
